<svg fill="#00ffd7" xmlns="http://www.w3.org/2000/svg" viewBox="0 0 12 15">
  <metadata><?xpacket begin="﻿" id="W5M0MpCehiHzreSzNTczkc9d"?>
<x:xmpmeta xmlns:x="adobe:ns:meta/" x:xmptk="Adobe XMP Core 5.6-c138 79.159824, 2016/09/14-01:09:01        ">
  <rdf:RDF xmlns:rdf="http://www.w3.org/1999/02/22-rdf-syntax-ns#">
    <rdf:Description rdf:about=""/>
  </rdf:RDF>
</x:xmpmeta>
<?xpacket end="w"?></metadata>
  <path id="иконка_геолокация" data-name="иконка геолокация" class="cls-1" d="M524.786,3425a5.988,5.988,0,0,0-5.677,7.12h0s0.009,0.06.04,0.18a5.691,5.691,0,0,0,.4,1.19,17.283,17.283,0,0,0,5.113,6.38,0.522,0.522,0,0,0,.666,0,17.333,17.333,0,0,0,5.116-6.38,5.773,5.773,0,0,0,.4-1.19c0.028-.12.04-0.19,0.04-0.19h0A5.983,5.983,0,0,0,524.786,3425Zm0.213,8.96a2.91,2.91,0,1,1,2.914-2.91A2.916,2.916,0,0,1,525,3433.96Z" transform="translate(-519 -3425)"/>
</svg>
